<?xml version="1.0" encoding="UTF-8" standalone="no"?>
<svg xmlns="http://www.w3.org/2000/svg" version="1.2" baseProfile="tiny" width="1024" height="1024" viewBox="0 0 1024 1024">
<path d="M 347,306 L 347,864 L 354,871 L 355,871 L 409,925 L 409,609 L 410,608 L 549,608 L 550,607 L 558,607 L 559,606 L 564,606 L 565,605 L 569,605 L 570,604 L 573,604 L 574,603 L 577,603 L 578,602 L 580,602 L 581,601 L 583,601 L 584,600 L 586,600 L 587,599 L 589,599 L 590,598 L 592,598 L 593,597 L 594,597 L 595,596 L 597,596 L 598,595 L 599,595 L 600,594 L 601,594 L 602,593 L 603,593 L 604,592 L 605,592 L 606,591 L 607,591 L 608,590 L 609,590 L 610,589 L 611,589 L 612,588 L 613,588 L 615,586 L 616,586 L 617,585 L 618,585 L 620,583 L 621,583 L 623,581 L 624,581 L 627,578 L 628,578 L 632,574 L 633,574 L 652,555 L 652,554 L 656,550 L 656,549 L 658,547 L 658,546 L 660,544 L 660,543 L 662,541 L 662,540 L 663,539 L 663,538 L 665,536 L 665,535 L 666,534 L 666,533 L 668,531 L 668,530 L 669,529 L 669,528 L 670,527 L 670,526 L 671,525 L 671,524 L 672,523 L 672,522 L 673,521 L 673,520 L 674,519 L 674,518 L 675,517 L 675,515 L 676,514 L 676,513 L 677,512 L 677,510 L 678,509 L 678,507 L 679,506 L 679,504 L 680,503 L 680,500 L 681,499 L 681,496 L 682,495 L 682,493 L 683,492 L 683,489 L 684,488 L 684,484 L 685,483 L 685,479 L 686,478 L 686,474 L 687,473 L 687,467 L 688,466 L 688,440 L 687,439 L 687,432 L 686,431 L 686,426 L 685,425 L 685,421 L 684,420 L 684,416 L 683,415 L 683,411 L 682,410 L 682,408 L 681,407 L 681,404 L 680,403 L 680,401 L 679,400 L 679,398 L 678,397 L 678,395 L 677,394 L 677,392 L 676,391 L 676,390 L 675,389 L 675,388 L 674,387 L 674,386 L 673,385 L 673,384 L 672,383 L 672,382 L 671,381 L 671,380 L 670,379 L 670,378 L 668,376 L 668,375 L 667,374 L 667,373 L 665,371 L 665,370 L 663,368 L 663,367 L 661,365 L 661,364 L 658,361 L 658,360 L 655,357 L 655,356 L 648,349 L 648,348 L 647,347 L 646,347 L 637,338 L 636,338 L 633,335 L 632,335 L 629,332 L 628,332 L 626,330 L 625,330 L 623,328 L 622,328 L 621,327 L 620,327 L 618,325 L 617,325 L 616,324 L 615,324 L 614,323 L 613,323 L 612,322 L 611,322 L 610,321 L 609,321 L 608,320 L 607,320 L 606,319 L 605,319 L 604,318 L 602,318 L 601,317 L 600,317 L 599,316 L 597,316 L 596,315 L 595,315 L 594,314 L 592,314 L 591,313 L 589,313 L 588,312 L 585,312 L 584,311 L 582,311 L 581,310 L 578,310 L 577,309 L 573,309 L 572,308 L 568,308 L 567,307 L 560,307 L 559,306 Z" fill="black"/>
<path d="M 222,187 L 222,925 L 283,864 L 283,250 L 285,248 L 544,248 L 545,249 L 546,248 L 562,248 L 563,249 L 572,249 L 573,250 L 578,250 L 579,251 L 584,251 L 585,252 L 588,252 L 589,253 L 592,253 L 593,254 L 596,254 L 597,255 L 599,255 L 600,256 L 603,256 L 604,257 L 606,257 L 607,258 L 609,258 L 610,259 L 611,259 L 612,260 L 614,260 L 615,261 L 617,261 L 618,262 L 619,262 L 620,263 L 622,263 L 623,264 L 624,264 L 625,265 L 626,265 L 627,266 L 628,266 L 629,267 L 631,267 L 632,268 L 633,268 L 634,269 L 635,269 L 636,270 L 637,270 L 638,271 L 639,271 L 640,272 L 641,272 L 643,274 L 644,274 L 645,275 L 646,275 L 647,276 L 648,276 L 649,277 L 650,277 L 652,279 L 653,279 L 655,281 L 656,281 L 657,282 L 658,282 L 660,284 L 661,284 L 664,287 L 665,287 L 667,289 L 668,289 L 671,292 L 672,292 L 677,297 L 678,297 L 701,320 L 701,321 L 706,326 L 706,327 L 709,330 L 709,331 L 712,334 L 712,335 L 714,337 L 714,338 L 716,340 L 716,341 L 718,343 L 718,344 L 719,345 L 719,346 L 721,348 L 721,349 L 722,350 L 722,351 L 723,352 L 723,353 L 725,355 L 725,356 L 726,357 L 726,358 L 727,359 L 727,360 L 728,361 L 728,362 L 729,363 L 729,365 L 730,366 L 730,367 L 731,368 L 731,369 L 732,370 L 732,371 L 733,372 L 733,374 L 734,375 L 734,376 L 735,377 L 735,379 L 736,380 L 736,382 L 737,383 L 737,385 L 738,386 L 738,388 L 739,389 L 739,391 L 740,392 L 740,395 L 741,396 L 741,398 L 742,399 L 742,403 L 743,404 L 743,407 L 744,408 L 744,412 L 745,413 L 745,418 L 746,419 L 746,425 L 747,426 L 747,435 L 748,436 L 748,469 L 747,470 L 747,478 L 746,479 L 746,484 L 745,485 L 745,490 L 744,491 L 744,496 L 743,497 L 743,501 L 742,502 L 742,505 L 741,506 L 741,509 L 740,510 L 740,512 L 739,513 L 739,516 L 738,517 L 738,519 L 737,520 L 737,522 L 736,523 L 736,525 L 735,526 L 735,528 L 734,529 L 734,530 L 733,531 L 733,533 L 732,534 L 732,535 L 731,536 L 731,538 L 730,539 L 730,540 L 729,541 L 729,542 L 728,543 L 728,544 L 727,545 L 727,547 L 726,548 L 726,549 L 725,550 L 725,551 L 724,552 L 724,553 L 722,555 L 722,556 L 721,557 L 721,558 L 720,559 L 720,560 L 719,561 L 719,562 L 718,563 L 718,564 L 716,566 L 716,567 L 715,568 L 715,569 L 713,571 L 713,572 L 711,574 L 711,575 L 708,578 L 708,579 L 705,582 L 705,583 L 702,586 L 702,587 L 696,593 L 696,594 L 680,610 L 679,610 L 673,616 L 672,616 L 668,620 L 667,620 L 664,623 L 663,623 L 660,626 L 659,626 L 657,628 L 656,628 L 654,630 L 653,630 L 651,632 L 650,632 L 649,633 L 648,633 L 646,635 L 645,635 L 644,636 L 643,636 L 642,637 L 641,637 L 639,639 L 638,639 L 637,640 L 636,640 L 635,641 L 634,641 L 633,642 L 632,642 L 631,643 L 630,643 L 629,644 L 628,644 L 627,645 L 626,645 L 625,646 L 624,646 L 623,647 L 621,647 L 620,648 L 619,648 L 618,649 L 617,649 L 616,650 L 614,650 L 613,651 L 612,651 L 611,652 L 609,652 L 608,653 L 606,653 L 605,654 L 603,654 L 602,655 L 600,655 L 599,656 L 597,656 L 596,657 L 593,657 L 592,658 L 590,658 L 589,659 L 586,659 L 585,660 L 582,660 L 581,661 L 577,661 L 576,662 L 572,662 L 571,663 L 566,663 L 565,664 L 558,664 L 557,665 L 547,665 L 546,666 L 459,666 L 459,726 L 551,726 L 552,725 L 562,725 L 563,724 L 570,724 L 571,723 L 577,723 L 578,722 L 583,722 L 584,721 L 588,721 L 589,720 L 593,720 L 594,719 L 598,719 L 599,718 L 602,718 L 603,717 L 606,717 L 607,716 L 609,716 L 610,715 L 613,715 L 614,714 L 616,714 L 617,713 L 619,713 L 620,712 L 622,712 L 623,711 L 625,711 L 626,710 L 628,710 L 629,709 L 631,709 L 632,708 L 634,708 L 635,707 L 636,707 L 637,706 L 639,706 L 640,705 L 641,705 L 642,704 L 644,704 L 645,703 L 646,703 L 647,702 L 648,702 L 649,701 L 650,701 L 651,700 L 653,700 L 654,699 L 655,699 L 656,698 L 657,698 L 658,697 L 659,697 L 660,696 L 661,696 L 662,695 L 663,695 L 664,694 L 665,694 L 666,693 L 667,693 L 668,692 L 669,692 L 670,691 L 671,691 L 673,689 L 674,689 L 675,688 L 676,688 L 677,687 L 678,687 L 680,685 L 681,685 L 682,684 L 683,684 L 685,682 L 686,682 L 688,680 L 689,680 L 691,678 L 692,678 L 694,676 L 695,676 L 697,674 L 698,674 L 700,672 L 701,672 L 704,669 L 705,669 L 709,665 L 710,665 L 714,661 L 715,661 L 721,655 L 722,655 L 743,634 L 743,633 L 749,627 L 749,626 L 753,622 L 753,621 L 757,617 L 757,616 L 759,614 L 759,613 L 762,610 L 762,609 L 764,607 L 764,606 L 766,604 L 766,603 L 768,601 L 768,600 L 770,598 L 770,597 L 771,596 L 771,595 L 773,593 L 773,592 L 774,591 L 774,590 L 775,589 L 775,588 L 777,586 L 777,585 L 778,584 L 778,583 L 779,582 L 779,581 L 780,580 L 780,579 L 781,578 L 781,577 L 782,576 L 782,575 L 783,574 L 783,573 L 784,572 L 784,571 L 785,570 L 785,569 L 786,568 L 786,567 L 787,566 L 787,564 L 788,563 L 788,562 L 789,561 L 789,560 L 790,559 L 790,557 L 791,556 L 791,555 L 792,554 L 792,552 L 793,551 L 793,549 L 794,548 L 794,546 L 795,545 L 795,544 L 796,543 L 796,541 L 797,540 L 797,537 L 798,536 L 798,534 L 799,533 L 799,531 L 800,530 L 800,527 L 801,526 L 801,523 L 802,522 L 802,519 L 803,518 L 803,515 L 804,514 L 804,510 L 805,509 L 805,505 L 806,504 L 806,500 L 807,499 L 807,493 L 808,492 L 808,486 L 809,485 L 809,476 L 810,475 L 810,460 L 811,459 L 811,444 L 810,443 L 810,428 L 809,427 L 809,418 L 808,417 L 808,410 L 807,409 L 807,404 L 806,403 L 806,399 L 805,398 L 805,394 L 804,393 L 804,389 L 803,388 L 803,385 L 802,384 L 802,382 L 801,381 L 801,378 L 800,377 L 800,374 L 799,373 L 799,371 L 798,370 L 798,368 L 797,367 L 797,365 L 796,364 L 796,362 L 795,361 L 795,359 L 794,358 L 794,356 L 793,355 L 793,354 L 792,353 L 792,351 L 791,350 L 791,349 L 790,348 L 790,347 L 789,346 L 789,344 L 788,343 L 788,342 L 787,341 L 787,340 L 786,339 L 786,338 L 785,337 L 785,336 L 784,335 L 784,334 L 783,333 L 783,332 L 782,331 L 782,330 L 781,329 L 781,328 L 780,327 L 780,326 L 779,325 L 779,324 L 778,323 L 778,322 L 776,320 L 776,319 L 775,318 L 775,317 L 773,315 L 773,314 L 772,313 L 772,312 L 770,310 L 770,309 L 768,307 L 768,306 L 766,304 L 766,303 L 764,301 L 764,300 L 761,297 L 761,296 L 758,293 L 758,292 L 755,289 L 755,288 L 750,283 L 750,282 L 744,276 L 744,275 L 726,257 L 725,257 L 719,251 L 718,251 L 713,246 L 712,246 L 709,243 L 708,243 L 705,240 L 704,240 L 702,238 L 701,238 L 698,235 L 697,235 L 695,233 L 694,233 L 692,231 L 691,231 L 690,230 L 689,230 L 687,228 L 686,228 L 684,226 L 683,226 L 682,225 L 681,225 L 680,224 L 679,224 L 677,222 L 676,222 L 675,221 L 674,221 L 673,220 L 672,220 L 671,219 L 670,219 L 669,218 L 668,218 L 667,217 L 666,217 L 664,215 L 662,215 L 661,214 L 660,214 L 659,213 L 658,213 L 657,212 L 656,212 L 655,211 L 654,211 L 653,210 L 652,210 L 651,209 L 649,209 L 648,208 L 647,208 L 646,207 L 645,207 L 644,206 L 642,206 L 641,205 L 640,205 L 639,204 L 637,204 L 636,203 L 634,203 L 633,202 L 632,202 L 631,201 L 629,201 L 628,200 L 626,200 L 625,199 L 623,199 L 622,198 L 620,198 L 619,197 L 616,197 L 615,196 L 613,196 L 612,195 L 610,195 L 609,194 L 606,194 L 605,193 L 601,193 L 600,192 L 597,192 L 596,191 L 592,191 L 591,190 L 586,190 L 585,189 L 579,189 L 578,188 L 570,188 L 569,187 Z" fill="black"/>
<path d="M 95,72 L 95,926 L 157,926 L 157,135 L 158,134 L 567,134 L 568,135 L 580,135 L 581,136 L 589,136 L 590,137 L 597,137 L 598,138 L 603,138 L 604,139 L 608,139 L 609,140 L 613,140 L 614,141 L 618,141 L 619,142 L 622,142 L 623,143 L 627,143 L 628,144 L 630,144 L 631,145 L 634,145 L 635,146 L 638,146 L 639,147 L 641,147 L 642,148 L 644,148 L 645,149 L 647,149 L 648,150 L 650,150 L 651,151 L 653,151 L 654,152 L 656,152 L 657,153 L 659,153 L 660,154 L 661,154 L 662,155 L 664,155 L 665,156 L 666,156 L 667,157 L 669,157 L 670,158 L 671,158 L 672,159 L 673,159 L 674,160 L 676,160 L 677,161 L 678,161 L 679,162 L 680,162 L 681,163 L 682,163 L 683,164 L 684,164 L 685,165 L 686,165 L 687,166 L 688,166 L 689,167 L 690,167 L 691,168 L 692,168 L 693,169 L 694,169 L 695,170 L 696,170 L 697,171 L 698,171 L 699,172 L 700,172 L 701,173 L 702,173 L 703,174 L 704,174 L 706,176 L 707,176 L 708,177 L 709,177 L 711,179 L 712,179 L 713,180 L 714,180 L 716,182 L 717,182 L 718,183 L 719,183 L 721,185 L 722,185 L 724,187 L 725,187 L 727,189 L 728,189 L 730,191 L 731,191 L 733,193 L 734,193 L 737,196 L 738,196 L 740,198 L 741,198 L 744,201 L 745,201 L 749,205 L 750,205 L 754,209 L 755,209 L 761,215 L 762,215 L 791,244 L 791,245 L 797,251 L 797,252 L 801,256 L 801,257 L 805,261 L 805,262 L 808,265 L 808,266 L 811,269 L 811,270 L 813,272 L 813,273 L 815,275 L 815,276 L 817,278 L 817,279 L 819,281 L 819,282 L 821,284 L 821,285 L 823,287 L 823,288 L 824,289 L 824,290 L 826,292 L 826,293 L 827,294 L 827,295 L 828,296 L 828,297 L 830,299 L 830,300 L 831,301 L 831,302 L 832,303 L 832,304 L 833,305 L 833,306 L 834,307 L 834,308 L 835,309 L 835,310 L 836,311 L 836,312 L 837,313 L 837,314 L 838,315 L 838,316 L 839,317 L 839,318 L 840,319 L 840,320 L 841,321 L 841,322 L 842,323 L 842,325 L 843,326 L 843,327 L 844,328 L 844,329 L 845,330 L 845,332 L 846,333 L 846,334 L 847,335 L 847,337 L 848,338 L 848,339 L 849,340 L 849,342 L 850,343 L 850,345 L 851,346 L 851,348 L 852,349 L 852,351 L 853,352 L 853,354 L 854,355 L 854,357 L 855,358 L 855,360 L 856,361 L 856,364 L 857,365 L 857,368 L 858,369 L 858,372 L 859,373 L 859,376 L 860,377 L 860,380 L 861,381 L 861,385 L 862,386 L 862,390 L 863,391 L 863,395 L 864,396 L 864,401 L 865,402 L 865,408 L 866,409 L 866,417 L 867,418 L 867,430 L 868,431 L 868,472 L 867,473 L 867,485 L 866,486 L 866,494 L 865,495 L 865,502 L 864,503 L 864,508 L 863,509 L 863,514 L 862,515 L 862,519 L 861,520 L 861,524 L 860,525 L 860,528 L 859,529 L 859,533 L 858,534 L 858,537 L 857,538 L 857,541 L 856,542 L 856,544 L 855,545 L 855,548 L 854,549 L 854,551 L 853,552 L 853,554 L 852,555 L 852,557 L 851,558 L 851,560 L 850,561 L 850,563 L 849,564 L 849,566 L 848,567 L 848,569 L 847,570 L 847,571 L 846,572 L 846,574 L 845,575 L 845,576 L 844,577 L 844,579 L 843,580 L 843,581 L 842,582 L 842,583 L 841,584 L 841,586 L 840,587 L 840,588 L 839,589 L 839,590 L 838,591 L 838,592 L 837,593 L 837,594 L 836,595 L 836,597 L 835,598 L 835,599 L 833,601 L 833,602 L 832,603 L 832,605 L 830,607 L 830,608 L 829,609 L 829,610 L 828,611 L 828,612 L 827,613 L 827,614 L 825,616 L 825,617 L 824,618 L 824,619 L 823,620 L 823,621 L 821,623 L 821,624 L 819,626 L 819,627 L 818,628 L 818,629 L 816,631 L 816,632 L 814,634 L 814,635 L 812,637 L 812,638 L 809,641 L 809,642 L 807,644 L 807,645 L 804,648 L 804,649 L 800,653 L 800,654 L 796,658 L 796,659 L 792,663 L 792,664 L 784,672 L 784,673 L 765,692 L 764,692 L 756,700 L 755,700 L 750,705 L 749,705 L 745,709 L 744,709 L 741,712 L 740,712 L 737,715 L 736,715 L 733,718 L 732,718 L 730,720 L 729,720 L 726,723 L 725,723 L 723,725 L 722,725 L 720,727 L 719,727 L 718,728 L 717,728 L 715,730 L 714,730 L 712,732 L 711,732 L 710,733 L 709,733 L 707,735 L 706,735 L 705,736 L 704,736 L 702,738 L 701,738 L 700,739 L 699,739 L 698,740 L 697,740 L 695,742 L 694,742 L 693,743 L 692,743 L 691,744 L 690,744 L 689,745 L 688,745 L 687,746 L 686,746 L 685,747 L 684,747 L 683,748 L 682,748 L 681,749 L 680,749 L 679,750 L 678,750 L 677,751 L 676,751 L 675,752 L 674,752 L 673,753 L 672,753 L 671,754 L 669,754 L 668,755 L 667,755 L 666,756 L 665,756 L 664,757 L 663,757 L 662,758 L 660,758 L 659,759 L 658,759 L 657,760 L 655,760 L 654,761 L 653,761 L 652,762 L 650,762 L 649,763 L 647,763 L 646,764 L 645,764 L 644,765 L 642,765 L 641,766 L 639,766 L 638,767 L 636,767 L 635,768 L 633,768 L 632,769 L 630,769 L 629,770 L 626,770 L 625,771 L 623,771 L 622,772 L 619,772 L 618,773 L 615,773 L 614,774 L 612,774 L 611,775 L 608,775 L 607,776 L 603,776 L 602,777 L 598,777 L 597,778 L 594,778 L 593,779 L 588,779 L 587,780 L 582,780 L 581,781 L 576,781 L 575,782 L 568,782 L 567,783 L 558,783 L 557,784 L 544,784 L 543,785 L 459,785 L 459,846 L 548,846 L 549,845 L 560,845 L 561,844 L 570,844 L 571,843 L 579,843 L 580,842 L 586,842 L 587,841 L 592,841 L 593,840 L 598,840 L 599,839 L 603,839 L 604,838 L 609,838 L 610,837 L 613,837 L 614,836 L 618,836 L 619,835 L 622,835 L 623,834 L 626,834 L 627,833 L 630,833 L 631,832 L 634,832 L 635,831 L 637,831 L 638,830 L 641,830 L 642,829 L 644,829 L 645,828 L 647,828 L 648,827 L 651,827 L 652,826 L 654,826 L 655,825 L 657,825 L 658,824 L 660,824 L 661,823 L 663,823 L 664,822 L 665,822 L 666,821 L 668,821 L 669,820 L 671,820 L 672,819 L 673,819 L 674,818 L 676,818 L 677,817 L 679,817 L 680,816 L 681,816 L 682,815 L 684,815 L 685,814 L 686,814 L 687,813 L 688,813 L 689,812 L 691,812 L 692,811 L 693,811 L 694,810 L 695,810 L 696,809 L 697,809 L 698,808 L 699,808 L 700,807 L 702,807 L 703,806 L 704,806 L 705,805 L 706,805 L 707,804 L 708,804 L 709,803 L 710,803 L 711,802 L 712,802 L 713,801 L 714,801 L 715,800 L 716,800 L 717,799 L 718,799 L 719,798 L 720,798 L 722,796 L 723,796 L 724,795 L 725,795 L 726,794 L 727,794 L 728,793 L 729,793 L 731,791 L 732,791 L 733,790 L 734,790 L 735,789 L 736,789 L 738,787 L 739,787 L 740,786 L 741,786 L 743,784 L 744,784 L 745,783 L 746,783 L 748,781 L 749,781 L 751,779 L 752,779 L 754,777 L 755,777 L 757,775 L 758,775 L 760,773 L 761,773 L 763,771 L 764,771 L 766,769 L 767,769 L 770,766 L 771,766 L 774,763 L 775,763 L 778,760 L 779,760 L 782,757 L 783,757 L 787,753 L 788,753 L 793,748 L 794,748 L 802,740 L 803,740 L 818,725 L 819,725 L 820,724 L 820,723 L 836,707 L 836,706 L 842,700 L 842,699 L 847,694 L 847,693 L 851,689 L 851,688 L 854,685 L 854,684 L 857,681 L 857,680 L 860,677 L 860,676 L 863,673 L 863,672 L 865,670 L 865,669 L 867,667 L 867,666 L 869,664 L 869,663 L 871,661 L 871,660 L 873,658 L 873,657 L 874,656 L 874,655 L 876,653 L 876,652 L 877,651 L 877,650 L 879,648 L 879,647 L 880,646 L 880,645 L 881,644 L 881,643 L 883,641 L 883,640 L 884,639 L 884,638 L 885,637 L 885,636 L 886,635 L 886,634 L 887,633 L 887,632 L 888,631 L 888,630 L 889,629 L 889,628 L 890,627 L 890,626 L 891,625 L 891,624 L 892,623 L 892,622 L 893,621 L 893,620 L 894,619 L 894,618 L 895,617 L 895,616 L 896,615 L 896,614 L 897,613 L 897,611 L 898,610 L 898,609 L 899,608 L 899,607 L 900,606 L 900,604 L 901,603 L 901,602 L 902,601 L 902,599 L 903,598 L 903,597 L 904,596 L 904,594 L 905,593 L 905,592 L 906,591 L 906,589 L 907,588 L 907,586 L 908,585 L 908,583 L 909,582 L 909,580 L 910,579 L 910,577 L 911,576 L 911,575 L 912,574 L 912,571 L 913,570 L 913,568 L 914,567 L 914,565 L 915,564 L 915,561 L 916,560 L 916,558 L 917,557 L 917,554 L 918,553 L 918,550 L 919,549 L 919,546 L 920,545 L 920,542 L 921,541 L 921,537 L 922,536 L 922,533 L 923,532 L 923,528 L 924,527 L 924,522 L 925,521 L 925,516 L 926,515 L 926,510 L 927,509 L 927,503 L 928,502 L 928,494 L 929,493 L 929,484 L 930,483 L 930,466 L 931,465 L 931,437 L 930,436 L 930,420 L 929,419 L 929,410 L 928,409 L 928,401 L 927,400 L 927,394 L 926,393 L 926,388 L 925,387 L 925,382 L 924,381 L 924,377 L 923,376 L 923,372 L 922,371 L 922,367 L 921,366 L 921,363 L 920,362 L 920,358 L 919,357 L 919,355 L 918,354 L 918,351 L 917,350 L 917,347 L 916,346 L 916,344 L 915,343 L 915,341 L 914,340 L 914,338 L 913,337 L 913,334 L 912,333 L 912,332 L 911,331 L 911,328 L 910,327 L 910,326 L 909,325 L 909,323 L 908,322 L 908,320 L 907,319 L 907,318 L 906,317 L 906,315 L 905,314 L 905,312 L 904,311 L 904,310 L 903,309 L 903,308 L 902,307 L 902,305 L 901,304 L 901,303 L 900,302 L 900,300 L 899,299 L 899,298 L 898,297 L 898,296 L 897,295 L 897,294 L 896,293 L 896,292 L 895,291 L 895,290 L 894,289 L 894,288 L 893,287 L 893,286 L 892,285 L 892,284 L 891,283 L 891,282 L 890,281 L 890,280 L 889,279 L 889,278 L 888,277 L 888,276 L 887,275 L 887,274 L 886,273 L 886,272 L 885,271 L 885,270 L 883,268 L 883,267 L 882,266 L 882,265 L 881,264 L 881,263 L 879,261 L 879,260 L 878,259 L 878,258 L 876,256 L 876,255 L 875,254 L 875,253 L 873,251 L 873,250 L 871,248 L 871,247 L 869,245 L 869,244 L 867,242 L 867,241 L 865,239 L 865,238 L 862,235 L 862,234 L 860,232 L 860,231 L 857,228 L 857,227 L 854,224 L 854,223 L 850,219 L 850,218 L 846,214 L 846,213 L 840,207 L 840,206 L 831,197 L 831,196 L 811,176 L 810,176 L 801,167 L 800,167 L 795,162 L 794,162 L 789,157 L 788,157 L 785,154 L 784,154 L 781,151 L 780,151 L 777,148 L 776,148 L 773,145 L 772,145 L 770,143 L 769,143 L 766,140 L 765,140 L 763,138 L 762,138 L 760,136 L 759,136 L 757,134 L 756,134 L 755,133 L 754,133 L 752,131 L 751,131 L 749,129 L 748,129 L 747,128 L 746,128 L 744,126 L 743,126 L 742,125 L 741,125 L 740,124 L 739,124 L 737,122 L 736,122 L 735,121 L 734,121 L 733,120 L 732,120 L 731,119 L 730,119 L 728,117 L 727,117 L 726,116 L 725,116 L 724,115 L 723,115 L 722,114 L 721,114 L 720,113 L 719,113 L 718,112 L 717,112 L 716,111 L 715,111 L 714,110 L 713,110 L 712,109 L 711,109 L 710,108 L 708,108 L 707,107 L 706,107 L 705,106 L 704,106 L 703,105 L 702,105 L 701,104 L 700,104 L 699,103 L 697,103 L 696,102 L 695,102 L 694,101 L 693,101 L 692,100 L 690,100 L 689,99 L 688,99 L 687,98 L 685,98 L 684,97 L 682,97 L 681,96 L 680,96 L 679,95 L 677,95 L 676,94 L 674,94 L 673,93 L 671,93 L 670,92 L 668,92 L 667,91 L 665,91 L 664,90 L 662,90 L 661,89 L 659,89 L 658,88 L 656,88 L 655,87 L 652,87 L 651,86 L 649,86 L 648,85 L 645,85 L 644,84 L 641,84 L 640,83 L 637,83 L 636,82 L 633,82 L 632,81 L 629,81 L 628,80 L 625,80 L 624,79 L 620,79 L 619,78 L 615,78 L 614,77 L 609,77 L 608,76 L 604,76 L 603,75 L 597,75 L 596,74 L 589,74 L 588,73 L 580,73 L 579,72 Z" fill="black"/></svg>